<svg width="185" height="79" viewBox="0 0 185 79" fill="none" xmlns="http://www.w3.org/2000/svg">
<g style="mix-blend-mode:soft-light">
<g filter="url(#filter0_d_1476_4039)">
<path fill-rule="evenodd" clip-rule="evenodd" d="M86.7062 117.008C77.6934 93.7519 59.59 67.4629 73.1483 46.4517C86.4542 25.8315 122.898 44.4095 142.905 29.9167C166.653 12.7139 161.726 -36.3553 191.121 -39.0072C218.339 -41.4627 223.506 0.380806 240.92 21.0742C263.397 47.7861 309.865 63.3398 306.235 97.793C302.619 132.119 255.882 140.426 226.372 159.165C196.36 178.224 169.327 216.753 135.149 206.436C100.978 196.122 99.4186 149.811 86.7062 117.008Z" fill="url(#paint0_linear_1476_4039)" fill-opacity="0.8" shape-rendering="crispEdges"/>
</g>
<g filter="url(#filter1_d_1476_4039)">
<path fill-rule="evenodd" clip-rule="evenodd" d="M107.779 133.235C95.4063 111.517 73.5905 88.1006 83.8795 65.3705C93.9771 43.0633 132.79 56.223 150.427 39.0182C171.361 18.5963 159.194 -29.2456 187.878 -36.0803C214.438 -42.4087 225.769 -1.75022 246.07 16.2288C272.276 39.4368 320.555 48.1685 322.085 82.7754C323.61 117.255 278.612 132.169 252.205 154.936C225.35 178.091 204.335 220.083 168.992 214.773C133.656 209.463 125.23 163.868 107.779 133.235Z" fill="url(#paint1_linear_1476_4039)" fill-opacity="0.8" shape-rendering="crispEdges"/>
</g>
<g filter="url(#filter2_d_1476_4039)">
<path fill-rule="evenodd" clip-rule="evenodd" d="M65.8321 99.3945C58.2045 76.1506 41.8241 49.48 56.203 29.5648C70.3142 10.0203 105.071 30.0502 125.433 16.846C149.601 1.17277 147.317 -47.166 176.266 -48.2957C203.071 -49.3418 205.966 -8.07287 221.96 13.0791C242.605 40.3828 287.344 57.9497 281.999 91.5356C276.675 124.997 230.434 130.803 200.539 147.694C170.134 164.873 141.639 201.283 108.675 189.464C75.7176 177.647 76.5908 132.18 65.8321 99.3945Z" fill="url(#paint2_linear_1476_4039)" fill-opacity="0.5" shape-rendering="crispEdges"/>
</g>
</g>
<g style="mix-blend-mode:soft-light">
<g filter="url(#filter3_d_1476_4039)">
<path fill-rule="evenodd" clip-rule="evenodd" d="M177.899 141.314C160.714 123.237 133.968 105.816 138.51 81.2257C142.968 57.0934 183.74 60.4042 196.726 39.3882C212.14 14.4424 188.91 -29.0597 215.084 -42.6986C239.319 -55.3274 260.022 -18.5989 284 -6.08929C314.952 10.0586 363.842 6.75831 373.597 40.0003C383.316 73.1197 343.257 98.588 323.099 127.148C302.598 156.193 292.262 202.111 256.729 205.577C221.205 209.043 202.138 166.81 177.899 141.314Z" fill="url(#paint3_linear_1476_4039)" fill-opacity="0.8" shape-rendering="crispEdges"/>
</g>
<g filter="url(#filter4_d_1476_4039)">
<path fill-rule="evenodd" clip-rule="evenodd" d="M203.561 148.3C183.854 132.924 154.769 119.572 155.633 94.6369C156.482 70.1655 197.383 67.5644 207.145 44.9423C218.733 18.0901 189.274 -21.5216 213.198 -38.7579C235.351 -54.7177 261.303 -21.4308 286.919 -12.5305C319.985 -1.04154 367.954 -11.3398 382.539 20.0807C397.071 51.3852 361.134 82.3018 345.379 113.405C329.356 145.038 325.903 191.868 291.198 200.407C256.501 208.945 231.357 169.987 203.561 148.3Z" fill="url(#paint4_linear_1476_4039)" fill-opacity="0.8" shape-rendering="crispEdges"/>
</g>
<g filter="url(#filter5_d_1476_4039)">
<path fill-rule="evenodd" clip-rule="evenodd" d="M142.608 119.855C130.153 98.7999 108.413 76.2832 118.165 53.7385C127.735 31.6134 165.991 43.6872 183.03 26.4075C203.256 5.89674 190.614 -40.8156 218.64 -48.1538C244.591 -54.9486 256.306 -15.2717 276.48 1.939C302.522 24.1552 349.994 31.6741 352.009 65.6228C354.016 99.4462 310.112 115.075 284.556 138.008C258.564 161.332 238.581 203.026 203.844 198.583C169.115 194.142 160.175 149.554 142.608 119.855Z" fill="url(#paint5_linear_1476_4039)" fill-opacity="0.5" shape-rendering="crispEdges"/>
</g>
</g>
<defs>
<filter id="filter0_d_1476_4039" x="18.2769" y="-85.1108" width="338.159" height="347.272" filterUnits="userSpaceOnUse" color-interpolation-filters="sRGB">
<feFlood flood-opacity="0" result="BackgroundImageFix"/>
<feColorMatrix in="SourceAlpha" type="matrix" values="0 0 0 0 0 0 0 0 0 0 0 0 0 0 0 0 0 0 127 0" result="hardAlpha"/>
<feOffset dy="4"/>
<feGaussianBlur stdDeviation="25"/>
<feComposite in2="hardAlpha" operator="out"/>
<feColorMatrix type="matrix" values="0 0 0 0 0 0 0 0 0 0 0 0 0 0 0 0 0 0 0.1 0"/>
<feBlend mode="normal" in2="BackgroundImageFix" result="effect1_dropShadow_1476_4039"/>
<feBlend mode="normal" in="SourceGraphic" in2="effect1_dropShadow_1476_4039" result="shape"/>
</filter>
<filter id="filter1_d_1476_4039" x="31.2017" y="-82.7427" width="340.921" height="351.975" filterUnits="userSpaceOnUse" color-interpolation-filters="sRGB">
<feFlood flood-opacity="0" result="BackgroundImageFix"/>
<feColorMatrix in="SourceAlpha" type="matrix" values="0 0 0 0 0 0 0 0 0 0 0 0 0 0 0 0 0 0 127 0" result="hardAlpha"/>
<feOffset dy="4"/>
<feGaussianBlur stdDeviation="25"/>
<feComposite in2="hardAlpha" operator="out"/>
<feColorMatrix type="matrix" values="0 0 0 0 0 0 0 0 0 0 0 0 0 0 0 0 0 0 0.1 0"/>
<feBlend mode="normal" in2="BackgroundImageFix" result="effect1_dropShadow_1476_4039"/>
<feBlend mode="normal" in="SourceGraphic" in2="effect1_dropShadow_1476_4039" result="shape"/>
</filter>
<filter id="filter2_d_1476_4039" x="0.489502" y="-94.3152" width="331.949" height="340.095" filterUnits="userSpaceOnUse" color-interpolation-filters="sRGB">
<feFlood flood-opacity="0" result="BackgroundImageFix"/>
<feColorMatrix in="SourceAlpha" type="matrix" values="0 0 0 0 0 0 0 0 0 0 0 0 0 0 0 0 0 0 127 0" result="hardAlpha"/>
<feOffset dy="4"/>
<feGaussianBlur stdDeviation="25"/>
<feComposite in2="hardAlpha" operator="out"/>
<feColorMatrix type="matrix" values="0 0 0 0 0 0 0 0 0 0 0 0 0 0 0 0 0 0 0.1 0"/>
<feBlend mode="normal" in2="BackgroundImageFix" result="effect1_dropShadow_1476_4039"/>
<feBlend mode="normal" in="SourceGraphic" in2="effect1_dropShadow_1476_4039" result="shape"/>
</filter>
<filter id="filter3_d_1476_4039" x="87.9988" y="-91.3035" width="337.094" height="351.082" filterUnits="userSpaceOnUse" color-interpolation-filters="sRGB">
<feFlood flood-opacity="0" result="BackgroundImageFix"/>
<feColorMatrix in="SourceAlpha" type="matrix" values="0 0 0 0 0 0 0 0 0 0 0 0 0 0 0 0 0 0 127 0" result="hardAlpha"/>
<feOffset dy="4"/>
<feGaussianBlur stdDeviation="25"/>
<feComposite in2="hardAlpha" operator="out"/>
<feColorMatrix type="matrix" values="0 0 0 0 0 0 0 0 0 0 0 0 0 0 0 0 0 0 0.1 0"/>
<feBlend mode="normal" in2="BackgroundImageFix" result="effect1_dropShadow_1476_4039"/>
<feBlend mode="normal" in="SourceGraphic" in2="effect1_dropShadow_1476_4039" result="shape"/>
</filter>
<filter id="filter4_d_1476_4039" x="105.615" y="-89.0269" width="330.314" height="344.637" filterUnits="userSpaceOnUse" color-interpolation-filters="sRGB">
<feFlood flood-opacity="0" result="BackgroundImageFix"/>
<feColorMatrix in="SourceAlpha" type="matrix" values="0 0 0 0 0 0 0 0 0 0 0 0 0 0 0 0 0 0 127 0" result="hardAlpha"/>
<feOffset dy="4"/>
<feGaussianBlur stdDeviation="25"/>
<feComposite in2="hardAlpha" operator="out"/>
<feColorMatrix type="matrix" values="0 0 0 0 0 0 0 0 0 0 0 0 0 0 0 0 0 0 0.1 0"/>
<feBlend mode="normal" in2="BackgroundImageFix" result="effect1_dropShadow_1476_4039"/>
<feBlend mode="normal" in="SourceGraphic" in2="effect1_dropShadow_1476_4039" result="shape"/>
</filter>
<filter id="filter5_d_1476_4039" x="65.7197" y="-94.9282" width="336.356" height="347.84" filterUnits="userSpaceOnUse" color-interpolation-filters="sRGB">
<feFlood flood-opacity="0" result="BackgroundImageFix"/>
<feColorMatrix in="SourceAlpha" type="matrix" values="0 0 0 0 0 0 0 0 0 0 0 0 0 0 0 0 0 0 127 0" result="hardAlpha"/>
<feOffset dy="4"/>
<feGaussianBlur stdDeviation="25"/>
<feComposite in2="hardAlpha" operator="out"/>
<feColorMatrix type="matrix" values="0 0 0 0 0 0 0 0 0 0 0 0 0 0 0 0 0 0 0.1 0"/>
<feBlend mode="normal" in2="BackgroundImageFix" result="effect1_dropShadow_1476_4039"/>
<feBlend mode="normal" in="SourceGraphic" in2="effect1_dropShadow_1476_4039" result="shape"/>
</filter>
<linearGradient id="paint0_linear_1476_4039" x1="239.288" y1="109.189" x2="267.648" y2="24.9157" gradientUnits="userSpaceOnUse">
<stop stop-color="#EFEFF0"/>
<stop offset="1" stop-color="#CBCCDD"/>
</linearGradient>
<linearGradient id="paint1_linear_1476_4039" x1="257.554" y1="103.641" x2="273.5" y2="16.2769" gradientUnits="userSpaceOnUse">
<stop stop-color="#CFDAE9"/>
<stop offset="1" stop-color="#C1C5E7"/>
</linearGradient>
<linearGradient id="paint2_linear_1476_4039" x1="215.79" y1="99.3586" x2="247.836" y2="18.1321" gradientUnits="userSpaceOnUse">
<stop stop-color="#EFEFF0"/>
<stop offset="1" stop-color="#CBCCDD"/>
</linearGradient>
<linearGradient id="paint3_linear_1476_4039" x1="316.024" y1="76.0167" x2="310.179" y2="-12.7086" gradientUnits="userSpaceOnUse">
<stop stop-color="#EFEFF0"/>
<stop offset="1" stop-color="#CBCCDD"/>
</linearGradient>
<linearGradient id="paint4_linear_1476_4039" x1="330.804" y1="63.9347" x2="312.303" y2="-22.9246" gradientUnits="userSpaceOnUse">
<stop stop-color="#CFDAE9"/>
<stop offset="1" stop-color="#C1C5E7"/>
</linearGradient>
<linearGradient id="paint5_linear_1476_4039" x1="289.039" y1="87.5224" x2="302.838" y2="1.30012" gradientUnits="userSpaceOnUse">
<stop stop-color="#EFEFF0"/>
<stop offset="1" stop-color="#CBCCDD"/>
</linearGradient>
</defs>
</svg>
