<svg width="12" height="12" viewBox="0 0 12 12" fill="none" xmlns="http://www.w3.org/2000/svg">
<g id="git-merge" clip-path="url(#clip0_1520_5691)">
<path id="Vector" d="M7.5 9C7.5 9.82843 8.17157 10.5 9 10.5C9.82843 10.5 10.5 9.82843 10.5 9C10.5 8.17157 9.82843 7.5 9 7.5C8.17157 7.5 7.5 8.17157 7.5 9ZM7.5 9C6.30653 9 5.16193 8.52589 4.31802 7.68198C3.47411 6.83807 3 5.69347 3 4.5M3 4.5C3.82843 4.5 4.5 3.82843 4.5 3C4.5 2.17157 3.82843 1.5 3 1.5C2.17157 1.5 1.5 2.17157 1.5 3C1.5 3.82843 2.17157 4.5 3 4.5ZM3 4.5V10.5" stroke="url(#paint0_radial_1520_5691)" stroke-width="1.25" stroke-linecap="round" stroke-linejoin="round"/>
</g>
<defs>
<radialGradient id="paint0_radial_1520_5691" cx="0" cy="0" r="1" gradientUnits="userSpaceOnUse" gradientTransform="translate(5.99233 17.3258) rotate(-90) scale(15.8258 19.2567)">
<stop stop-color="#626FE6"/>
<stop offset="1" stop-color="#90A0F3"/>
</radialGradient>
<clipPath id="clip0_1520_5691">
<rect width="12" height="12" fill="white"/>
</clipPath>
</defs>
</svg>
