<svg width="12" height="12" viewBox="0 0 12 12" fill="none" xmlns="http://www.w3.org/2000/svg">
<g id="heart" clip-path="url(#clip0_1520_5422)">
<path id="Vector" d="M9.5 7C10.245 6.27 11 5.395 11 4.25C11 3.52065 10.7103 2.82118 10.1945 2.30546C9.67882 1.78973 8.97935 1.5 8.25 1.5C7.37 1.5 6.75 1.75 6 2.5C5.25 1.75 4.63 1.5 3.75 1.5C3.02065 1.5 2.32118 1.78973 1.80546 2.30546C1.28973 2.82118 1 3.52065 1 4.25C1 5.4 1.75 6.275 2.5 7L6 10.5L9.5 7Z" stroke="url(#paint0_radial_1520_5422)" stroke-width="1.25" stroke-linecap="round" stroke-linejoin="round"/>
</g>
<defs>
<radialGradient id="paint0_radial_1520_5422" cx="0" cy="0" r="1" gradientUnits="userSpaceOnUse" gradientTransform="translate(5.99148 17.3258) rotate(-90) scale(15.8258 21.3963)">
<stop stop-color="#626FE6"/>
<stop offset="1" stop-color="#90A0F3"/>
</radialGradient>
<clipPath id="clip0_1520_5422">
<rect width="12" height="12" fill="white"/>
</clipPath>
</defs>
</svg>
