<svg width="12" height="12" viewBox="0 0 12 12" fill="none" xmlns="http://www.w3.org/2000/svg">
<g id="user-plus" clip-path="url(#clip0_1520_5591)">
<path id="Vector" d="M8 10.5V9.5C8 8.96957 7.78929 8.46086 7.41421 8.08579C7.03914 7.71071 6.53043 7.5 6 7.5H3C2.46957 7.5 1.96086 7.71071 1.58579 8.08579C1.21071 8.46086 1 8.96957 1 9.5V10.5M9.5 4V7M11 5.5H8M6.5 3.5C6.5 4.60457 5.60457 5.5 4.5 5.5C3.39543 5.5 2.5 4.60457 2.5 3.5C2.5 2.39543 3.39543 1.5 4.5 1.5C5.60457 1.5 6.5 2.39543 6.5 3.5Z" stroke="url(#paint0_radial_1520_5591)" stroke-width="1.25" stroke-linecap="round" stroke-linejoin="round"/>
</g>
<defs>
<radialGradient id="paint0_radial_1520_5591" cx="0" cy="0" r="1" gradientUnits="userSpaceOnUse" gradientTransform="translate(5.99148 17.3258) rotate(-90) scale(15.8258 21.3963)">
<stop stop-color="#626FE6"/>
<stop offset="1" stop-color="#90A0F3"/>
</radialGradient>
<clipPath id="clip0_1520_5591">
<rect width="12" height="12" fill="white"/>
</clipPath>
</defs>
</svg>
