<svg width="32" height="18" viewBox="0 0 32 18" fill="none" xmlns="http://www.w3.org/2000/svg">
<rect width="32" height="18" rx="2" fill="black"/>
<path d="M9.20188 7.416H9.78988C9.70588 8.064 9.18588 8.556 8.43388 8.556C7.59388 8.556 7.04988 7.932 7.04988 7.164C7.04988 6.396 7.59388 5.76 8.43388 5.76C9.16588 5.76 9.68988 6.248 9.78188 6.876H9.18988C9.10188 6.552 8.82588 6.316 8.42988 6.32C7.93388 6.324 7.62988 6.708 7.62988 7.16C7.62988 7.608 7.92988 8 8.43788 8C8.83388 8 9.12188 7.76 9.20188 7.416ZM12.6228 8.5H11.9787L11.7548 7.932H10.6308L10.4108 8.5H9.78675L10.8868 5.82H11.5188L12.6228 8.5ZM11.1908 6.504L10.8268 7.432H11.5548L11.1908 6.504ZM13.5217 5.82H14.9017V6.372H13.5617C13.4177 6.372 13.3457 6.464 13.3457 6.564C13.3457 6.648 13.4017 6.736 13.5137 6.764L14.4697 6.988C14.8857 7.084 15.0777 7.408 15.0777 7.724C15.0777 8.116 14.8017 8.5 14.2697 8.5H12.8337V7.944H14.2497C14.3897 7.944 14.4737 7.84 14.4737 7.732C14.4737 7.644 14.4177 7.556 14.2937 7.528L13.3337 7.3C12.9217 7.2 12.7297 6.884 12.7297 6.576C12.7297 6.192 13.0017 5.82 13.5217 5.82ZM17.2678 6.856V5.82H17.8398V8.5H17.2678V7.408H16.0078V8.5H15.4398V5.82H16.0078V6.856H17.2678ZM20.5206 8.556C19.6606 8.556 19.1086 7.928 19.1086 7.164C19.1086 6.4 19.6606 5.76 20.5206 5.76C21.3766 5.76 21.9326 6.4 21.9326 7.164C21.9326 7.928 21.3806 8.556 20.5206 8.556ZM20.5206 8C21.0366 8 21.3526 7.612 21.3526 7.16C21.3526 6.704 21.0366 6.32 20.5206 6.32C20.0046 6.32 19.6886 6.704 19.6886 7.16C19.6886 7.608 20.0006 8 20.5206 8ZM24.247 7.58V5.82H24.815V8.5H24.247L22.875 6.632V8.5H22.307V5.82H22.955L24.247 7.58ZM6.58431 12.5V9.82H7.71231C8.50831 9.82 9.08431 10.38 9.08431 11.152V11.164C9.08431 11.936 8.50831 12.5 7.71231 12.5H6.58431ZM7.70431 10.372H7.15231V11.944H7.70431C8.17631 11.944 8.50431 11.632 8.50431 11.164V11.152C8.50431 10.684 8.17631 10.372 7.70431 10.372ZM11.5074 12.5H9.45541V9.82H11.5074V10.372H10.0234V10.872H11.3354V11.4H10.0234V11.948H11.5074V12.5ZM11.9398 12.5V9.82H12.5118V11.944H13.8878V12.5H11.9398ZM14.2015 12.5V9.82H14.7695V12.5H14.2015ZM16.4453 11.8L17.2533 9.82H17.8613L16.7453 12.5H16.1253L15.0133 9.82H15.6293L16.4453 11.8ZM20.1246 12.5H18.0726V9.82H20.1246V10.372H18.6406V10.872H19.9526V11.4H18.6406V11.948H20.1246V12.5ZM21.125 12.5H20.557V9.82H21.929C22.469 9.82 22.853 10.084 22.853 10.568C22.853 10.824 22.753 11.012 22.589 11.132V11.144C22.805 11.2 22.917 11.364 22.917 11.644V12.5H22.349V11.748C22.349 11.64 22.285 11.588 22.181 11.588H21.125V12.5ZM21.125 10.372V11.072H21.885C22.117 11.072 22.285 10.944 22.285 10.72C22.285 10.504 22.113 10.372 21.889 10.372H21.125ZM24.9757 9.82H25.6197L24.5477 11.464V12.5H23.9797V11.468L22.9077 9.82H23.5637L24.2717 10.94L24.9757 9.82Z" fill="white"/>
</svg>
